<svg xmlns="http://www.w3.org/2000/svg" width="1024" height="1024" viewBox="0 0 1024 1024">
<g>
<path d="M 528.00,953.50 L 528.00,943.00 L 517.50,943.00 L 507.00,943.00 L 507.00,933.00 L 507.00,923.00 L 497.00,923.00 L 487.00,923.00 L 487.00,903.00 L 487.00,883.00 L 497.00,883.00 L 507.00,883.00 L 507.00,873.04 L 507.00,863.07 L 497.25,862.79 L 487.50,862.50 L 487.50,842.50 L 487.50,822.50 L 497.21,822.21 L 506.93,821.93 L 507.21,812.21 L 507.50,802.50 L 517.75,802.22 L 528.00,801.93 L 528.00,792.49 L 528.00,783.04 L 547.75,782.77 L 567.50,782.50 L 567.78,772.25 L 568.07,762.00 L 558.03,762.00 L 548.00,762.00 L 548.00,742.00 L 548.00,722.00 L 538.00,722.00 L 528.00,722.00 L 528.00,732.00 L 528.00,742.00 L 517.50,742.00 L 507.00,742.00 L 507.00,732.00 L 507.00,722.00 L 497.00,722.00 L 487.00,722.00 L 487.00,712.00 L 487.00,702.00 L 477.50,702.00 L 468.00,702.00 L 468.00,692.00 L 468.00,682.00 L 477.50,682.00 L 487.00,682.00 L 487.00,672.00 L 487.00,662.00 L 457.00,662.00 L 427.00,662.00 L 427.00,672.00 L 427.00,682.00 L 407.00,682.00 L 387.00,682.00 L 387.00,692.00 L 387.00,702.00 L 377.00,702.00 L 367.00,702.00 L 367.00,722.00 L 367.00,742.00 L 357.00,742.00 L 347.00,742.00 L 347.00,752.00 L 347.00,762.00 L 357.00,762.00 L 367.00,762.00 L 367.00,772.50 L 367.00,783.00 L 377.00,783.00 L 387.00,783.00 L 387.00,802.50 L 387.00,822.00 L 397.00,822.00 L 407.00,822.00 L 407.00,862.46 L 407.00,902.93 L 397.25,903.21 L 387.50,903.50 L 387.21,913.25 L 386.93,923.00 L 376.96,923.00 L 367.00,923.00 L 367.00,933.00 L 367.00,943.00 L 347.00,943.00 L 327.00,943.00 L 327.00,933.00 L 327.00,923.00 L 316.75,923.00 L 306.50,923.00 L 306.67,913.25 L 306.84,903.50 L 316.92,903.22 L 327.00,902.93 L 327.00,912.97 L 327.00,923.00 L 337.00,923.00 L 347.00,923.00 L 347.00,913.00 L 347.00,903.00 L 357.00,903.00 L 367.00,903.00 L 367.00,883.00 L 367.00,863.00 L 357.00,863.00 L 347.00,863.00 L 347.00,853.00 L 347.00,843.00 L 337.00,843.00 L 327.00,843.00 L 327.00,853.00 L 327.00,863.00 L 317.00,863.00 L 307.00,863.00 L 307.00,853.03 L 307.00,843.07 L 296.75,842.78 L 286.50,842.50 L 286.22,832.25 L 285.93,822.00 L 276.47,822.00 L 267.00,822.00 L 267.00,812.00 L 267.00,802.00 L 276.50,802.00 L 286.00,802.00 L 286.00,742.00 L 286.00,682.00 L 276.50,682.00 L 267.00,682.00 L 267.00,672.00 L 267.00,662.00 L 276.50,662.00 L 286.00,662.00 L 286.00,652.00 L 286.00,642.00 L 296.56,642.00 L 307.11,642.00 L 306.92,631.75 L 306.73,621.50 L 316.86,621.22 L 327.00,620.93 L 327.00,610.97 L 327.00,601.00 L 337.00,601.00 L 347.00,601.00 L 347.00,591.50 L 347.00,582.00 L 337.00,582.00 L 327.00,582.00 L 327.00,571.50 L 327.00,561.00 L 306.50,561.00 L 286.00,561.00 L 286.00,571.50 L 286.00,582.00 L 256.00,582.00 L 226.00,582.00 L 226.00,591.50 L 226.00,601.00 L 236.00,601.00 L 246.00,601.00 L 246.00,611.00 L 246.00,621.00 L 236.00,621.00 L 226.00,621.00 L 226.00,631.50 L 226.00,642.00 L 216.00,642.00 L 206.00,642.00 L 206.00,662.00 L 206.00,682.00 L 216.00,682.00 L 226.00,682.00 L 226.00,722.00 L 226.00,762.00 L 216.00,762.00 L 206.00,762.00 L 206.00,772.50 L 206.00,783.00 L 186.00,783.00 L 166.00,783.00 L 166.00,772.50 L 166.00,762.00 L 155.50,762.00 L 145.00,762.00 L 145.00,752.00 L 145.00,742.00 L 155.50,742.00 L 166.00,742.00 L 166.00,752.00 L 166.00,762.00 L 176.00,762.00 L 186.00,762.00 L 186.00,752.00 L 186.00,742.00 L 196.00,742.00 L 206.00,742.00 L 206.00,732.00 L 206.00,722.00 L 196.04,722.00 L 186.07,722.00 L 185.79,712.25 L 185.50,702.50 L 175.75,702.21 L 166.00,701.93 L 166.00,681.96 L 166.00,662.00 L 155.50,662.00 L 145.00,662.00 L 145.00,622.00 L 145.00,582.00 L 155.50,582.00 L 166.00,582.00 L 166.00,561.50 L 166.00,541.00 L 176.00,541.00 L 186.00,541.00 L 186.00,531.00 L 186.00,521.00 L 206.00,521.00 L 226.00,521.00 L 226.00,511.00 L 226.00,501.00 L 236.00,501.00 L 246.00,501.00 L 246.00,491.00 L 246.00,481.00 L 276.50,481.00 L 307.00,481.00 L 307.00,471.00 L 307.00,461.00 L 317.00,461.00 L 327.00,461.00 L 327.00,450.50 L 327.00,440.00 L 337.00,440.00 L 347.00,440.00 L 347.00,430.50 L 347.00,421.00 L 366.97,421.00 L 386.93,421.00 L 387.22,410.75 L 387.50,400.50 L 397.25,400.21 L 407.00,399.93 L 407.00,379.96 L 407.00,360.00 L 417.00,360.00 L 427.00,360.00 L 427.00,350.00 L 427.00,340.00 L 437.00,340.00 L 447.00,340.00 L 447.00,330.00 L 447.00,320.00 L 437.00,320.00 L 427.00,320.00 L 427.00,310.00 L 427.00,300.00 L 417.00,300.00 L 407.00,300.00 L 407.00,269.50 L 407.00,239.00 L 416.96,239.00 L 426.93,239.00 L 427.21,229.25 L 427.50,219.50 L 437.25,219.21 L 447.00,218.93 L 447.00,209.50 L 447.00,200.07 L 457.25,199.78 L 467.50,199.50 L 467.78,189.25 L 468.07,179.00 L 477.53,179.00 L 487.00,179.00 L 487.00,169.00 L 487.00,159.00 L 507.50,159.00 L 528.00,159.00 L 528.00,149.00 L 528.00,139.00 L 548.00,139.00 L 568.00,139.00 L 568.00,128.50 L 568.00,118.00 L 598.00,118.00 L 628.00,118.00 L 628.00,108.51 L 628.00,99.03 L 658.10,98.76 L 688.21,98.50 L 688.35,88.50 L 688.50,78.50 L 758.75,78.24 L 829.00,77.99 L 829.00,88.49 L 829.00,99.00 L 839.50,99.00 L 850.00,99.00 L 850.00,108.50 L 850.00,118.00 L 860.00,118.00 L 870.00,118.00 L 870.00,209.00 L 870.00,300.00 L 860.00,300.00 L 850.00,300.00 L 850.00,320.00 L 850.00,340.00 L 839.50,340.00 L 829.00,340.00 L 829.00,360.00 L 829.00,380.00 L 819.02,380.00 L 809.04,380.00 L 808.77,400.25 L 808.50,420.50 L 798.75,420.79 L 789.00,421.07 L 789.00,430.50 L 789.00,439.93 L 779.25,440.21 L 769.50,440.50 L 769.22,450.75 L 768.93,461.00 L 758.97,461.00 L 749.00,461.00 L 749.00,471.00 L 749.00,481.00 L 739.00,481.00 L 729.00,481.00 L 729.00,491.00 L 729.00,501.00 L 689.00,501.00 L 649.00,501.00 L 649.00,511.00 L 649.00,521.00 L 628.50,521.00 L 608.00,521.00 L 608.00,531.00 L 608.00,541.00 L 638.50,541.00 L 669.00,541.00 L 669.00,551.00 L 669.00,561.00 L 678.47,561.00 L 687.93,561.00 L 688.22,571.25 L 688.50,581.50 L 698.75,581.78 L 709.00,582.07 L 709.00,591.50 L 709.00,600.93 L 718.75,601.21 L 728.50,601.50 L 728.79,611.25 L 729.07,621.00 L 739.04,621.00 L 749.00,621.00 L 749.00,631.50 L 749.00,642.00 L 759.00,642.00 L 769.00,642.00 L 769.00,682.00 L 769.00,722.00 L 759.00,722.00 L 749.00,722.00 L 749.00,732.00 L 749.00,742.00 L 739.00,742.00 L 729.00,742.00 L 729.00,752.00 L 729.00,762.00 L 719.00,762.00 L 709.00,762.00 L 709.00,772.50 L 709.00,783.00 L 719.00,783.00 L 729.00,783.00 L 729.00,792.46 L 729.00,801.93 L 738.75,802.21 L 748.50,802.50 L 748.79,812.25 L 749.07,822.00 L 759.00,822.00 L 768.93,822.00 L 769.21,812.25 L 769.50,802.50 L 779.25,802.21 L 789.00,801.93 L 789.00,792.46 L 789.00,783.00 L 799.00,783.00 L 809.00,783.00 L 809.00,772.50 L 809.00,762.00 L 819.00,762.00 L 829.00,762.00 L 829.00,772.50 L 829.00,783.00 L 819.00,783.00 L 809.00,783.00 L 809.00,813.00 L 809.00,843.00 L 799.00,843.00 L 789.00,843.00 L 789.00,853.00 L 789.00,863.00 L 759.00,863.00 L 729.00,863.00 L 729.00,873.02 L 729.00,883.04 L 708.75,882.77 L 688.50,882.50 L 688.21,872.75 L 687.93,863.00 L 678.46,863.00 L 669.00,863.00 L 669.00,853.00 L 669.00,843.00 L 659.00,843.00 L 649.00,843.00 L 649.00,832.50 L 649.00,822.00 L 659.00,822.00 L 669.00,822.00 L 669.00,782.00 L 669.00,742.00 L 678.46,742.00 L 687.93,742.00 L 688.21,732.25 L 688.50,722.50 L 698.75,722.22 L 709.00,721.93 L 709.00,701.97 L 709.00,682.00 L 698.43,682.00 L 687.87,682.00 L 688.18,692.00 L 688.50,702.00 L 678.75,702.00 L 669.00,702.00 L 669.00,692.00 L 669.00,682.00 L 659.00,682.00 L 649.00,682.00 L 649.00,672.00 L 649.00,662.00 L 638.50,662.00 L 628.00,662.00 L 628.00,641.50 L 628.00,621.00 L 618.00,621.00 L 608.00,621.00 L 608.00,611.00 L 608.00,601.00 L 588.00,601.00 L 568.00,601.00 L 568.00,611.00 L 568.00,621.00 L 558.00,621.00 L 548.00,621.00 L 548.00,631.50 L 548.00,642.00 L 558.00,642.00 L 568.00,642.00 L 568.00,652.00 L 568.00,662.00 L 577.96,662.00 L 587.93,662.00 L 588.21,671.75 L 588.50,681.50 L 598.25,681.79 L 608.00,682.07 L 608.00,702.04 L 608.00,722.00 L 618.00,722.00 L 628.00,722.00 L 628.00,761.96 L 628.00,801.93 L 618.25,802.21 L 608.50,802.50 L 608.23,822.75 L 607.96,843.00 L 597.98,843.00 L 588.00,843.00 L 588.00,853.00 L 588.00,863.00 L 578.00,863.00 L 568.00,863.00 L 568.00,883.00 L 568.00,903.00 L 558.00,903.00 L 548.00,903.00 L 548.00,913.00 L 548.00,923.00 L 567.96,923.00 L 587.93,923.00 L 588.21,913.25 L 588.50,903.50 L 598.25,903.21 L 608.00,902.93 L 608.00,892.96 L 608.00,883.00 L 618.00,883.00 L 628.00,883.00 L 628.00,893.00 L 628.00,903.00 L 618.00,903.00 L 608.00,903.00 L 608.00,922.96 L 608.00,942.93 L 598.25,943.21 L 588.50,943.50 L 588.22,953.75 L 587.93,964.00 L 557.97,964.00 L 528.00,964.00 L 528.00,953.50 M 729.00,853.00 L 729.00,843.00 L 708.50,843.00 L 688.00,843.00 L 688.00,832.50 L 688.00,822.00 L 678.50,822.00 L 669.00,822.00 L 669.00,832.50 L 669.00,843.00 L 678.50,843.00 L 688.00,843.00 L 688.00,853.00 L 688.00,863.00 L 708.50,863.00 L 729.00,863.00 L 729.00,853.00 M 327.00,832.50 L 327.00,822.00 L 317.04,822.00 L 307.07,822.00 L 306.79,812.25 L 306.50,802.50 L 296.25,802.22 L 286.00,801.93 L 286.00,811.97 L 286.00,822.00 L 296.50,822.00 L 307.00,822.00 L 307.00,832.50 L 307.00,843.00 L 317.00,843.00 L 327.00,843.00 L 327.00,832.50 M 528.00,832.50 L 528.00,822.00 L 538.04,822.00 L 548.07,822.00 L 547.79,812.25 L 547.50,802.50 L 537.75,802.21 L 528.00,801.93 L 528.00,811.96 L 528.00,822.00 L 517.50,822.00 L 507.00,822.00 L 507.00,832.50 L 507.00,843.00 L 517.50,843.00 L 528.00,843.00 L 528.00,832.50 M 528.00,712.00 L 528.00,702.00 L 517.50,702.00 L 507.00,702.00 L 507.00,692.00 L 507.00,682.00 L 497.00,682.00 L 487.00,682.00 L 487.00,692.00 L 487.00,702.00 L 497.00,702.00 L 507.00,702.00 L 507.00,712.00 L 507.00,722.00 L 517.50,722.00 L 528.00,722.00 L 528.00,712.00 M 306.79,671.75 L 307.07,662.00 L 317.04,662.00 L 327.00,662.00 L 327.00,652.00 L 327.00,642.00 L 317.00,642.00 L 307.00,642.00 L 307.00,652.00 L 307.00,662.00 L 296.50,662.00 L 286.00,662.00 L 286.00,672.03 L 286.00,682.07 L 296.25,681.78 L 306.50,681.50 L 306.79,671.75 M 688.00,672.00 L 688.00,662.00 L 678.50,662.00 L 669.00,662.00 L 669.00,652.00 L 669.00,642.00 L 659.00,642.00 L 649.00,642.00 L 649.00,652.00 L 649.00,662.00 L 659.00,662.00 L 669.00,662.00 L 669.00,672.00 L 669.00,682.00 L 678.50,682.00 L 688.00,682.00 L 688.00,672.00 M 206.00,631.50 L 206.00,621.00 L 216.00,621.00 L 226.00,621.00 L 226.00,610.96 L 226.00,600.93 L 216.25,601.21 L 206.50,601.50 L 206.21,611.25 L 205.93,621.00 L 195.96,621.00 L 186.00,621.00 L 186.00,631.50 L 186.00,642.00 L 196.00,642.00 L 206.00,642.00 L 206.00,631.50 M 547.79,611.25 L 547.50,601.50 L 537.75,601.21 L 528.00,600.93 L 528.00,580.96 L 528.00,561.00 L 517.50,561.00 L 507.00,561.00 L 507.00,581.00 L 507.00,601.00 L 517.50,601.00 L 528.00,601.00 L 528.00,611.00 L 528.00,621.00 L 538.04,621.00 L 548.07,621.00 L 547.79,611.25 M 366.78,571.25 L 367.07,561.00 L 377.03,561.00 L 387.00,561.00 L 387.00,541.00 L 387.00,521.00 L 397.00,521.00 L 407.00,521.00 L 407.00,511.00 L 407.00,501.00 L 397.00,501.00 L 387.00,501.00 L 387.00,511.00 L 387.00,521.00 L 377.00,521.00 L 367.00,521.00 L 367.00,541.00 L 367.00,561.00 L 357.00,561.00 L 347.00,561.00 L 347.00,571.54 L 347.00,582.07 L 356.75,581.79 L 366.50,581.50 L 366.78,571.25 M 548.00,531.00 L 548.00,521.00 L 558.00,521.00 L 568.00,521.00 L 568.00,501.00 L 568.00,481.00 L 558.00,481.00 L 548.00,481.00 L 548.00,471.00 L 548.00,461.00 L 527.50,461.00 L 507.00,461.00 L 507.00,471.00 L 507.00,481.00 L 497.00,481.00 L 487.00,481.00 L 487.00,501.00 L 487.00,521.00 L 497.00,521.00 L 507.00,521.00 L 507.00,531.00 L 507.00,541.00 L 527.50,541.00 L 548.00,541.00 L 548.00,531.00 M 608.00,511.00 L 608.00,501.00 L 598.00,501.00 L 588.00,501.00 L 588.00,511.00 L 588.00,521.00 L 598.00,521.00 L 608.00,521.00 L 608.00,511.00 M 347.00,491.04 L 347.00,481.07 L 356.75,480.79 L 366.50,480.50 L 366.79,470.75 L 367.07,461.00 L 357.04,461.00 L 347.00,461.00 L 347.00,471.00 L 347.00,481.00 L 327.07,481.00 L 307.14,481.00 L 306.82,490.59 C306.64,495.86 306.69,500.36 306.92,500.59 C307.15,500.81 316.26,501.00 327.17,501.00 L 347.00,501.00 L 347.00,491.04 M 467.79,470.75 L 468.07,461.00 L 477.54,461.00 L 487.00,461.00 L 487.00,441.00 L 487.00,421.00 L 477.53,421.00 L 468.07,421.00 L 467.78,410.75 L 467.50,400.50 L 447.29,400.23 L 427.07,399.96 L 426.79,410.23 L 426.50,420.50 L 416.75,420.79 L 407.00,421.07 L 407.00,441.04 L 407.00,461.00 L 417.00,461.00 L 427.00,461.00 L 427.00,471.02 L 427.00,481.04 L 447.25,480.77 L 467.50,480.50 L 467.79,470.75 M 608.00,450.50 L 608.00,440.00 L 598.00,440.00 L 588.00,440.00 L 588.00,430.50 L 588.00,421.00 L 558.00,421.00 L 528.00,421.00 L 528.00,390.50 L 528.00,360.00 L 517.50,360.00 L 507.00,360.00 L 507.00,349.96 L 507.00,339.93 L 497.25,340.21 L 487.50,340.50 L 487.21,350.25 L 486.93,360.00 L 496.95,360.00 L 506.97,360.00 L 507.24,390.25 L 507.50,420.50 L 517.75,420.78 L 528.00,421.07 L 528.00,430.53 L 528.00,440.00 L 558.00,440.00 L 588.00,440.00 L 588.00,449.83 C588.00,455.24 588.30,459.97 588.67,460.33 C589.03,460.70 593.53,461.00 598.67,461.00 L 608.00,461.00 L 608.00,450.50 M 688.18,430.54 L 687.86,421.07 L 698.18,420.79 L 708.50,420.50 L 708.78,410.25 L 709.07,400.00 L 719.03,400.00 L 729.00,400.00 L 729.00,390.00 L 729.00,380.00 L 719.00,380.00 L 709.00,380.00 L 709.00,389.97 L 709.00,399.93 L 698.75,400.22 L 688.50,400.50 L 688.22,410.75 L 687.93,421.00 L 678.47,421.00 L 669.00,421.00 L 669.00,430.50 L 669.00,440.00 L 678.75,440.00 L 688.50,440.00 L 688.18,430.54 M 628.00,390.00 L 628.00,380.00 L 608.00,380.00 L 588.00,380.00 L 588.00,370.00 L 588.00,360.00 L 578.00,360.00 L 568.00,360.00 L 568.00,340.00 L 568.00,320.00 L 558.00,320.00 L 548.00,320.00 L 548.00,340.00 L 548.00,360.00 L 558.00,360.00 L 568.00,360.00 L 568.00,370.00 L 568.00,380.00 L 578.00,380.00 L 588.00,380.00 L 588.00,390.00 L 588.00,400.00 L 608.00,400.00 L 628.00,400.00 L 628.00,390.00 M 769.00,340.00 L 769.00,320.00 L 779.00,320.00 L 789.00,320.00 L 789.00,300.00 L 789.00,280.00 L 779.00,280.00 L 769.00,280.00 L 769.00,300.00 L 769.00,320.00 L 759.00,320.00 L 749.00,320.00 L 749.00,340.00 L 749.00,360.00 L 759.00,360.00 L 769.00,360.00 L 769.00,340.00 M 507.00,270.00 L 507.00,260.00 L 517.50,260.00 L 528.00,260.00 L 528.00,249.50 L 528.00,239.00 L 538.04,239.00 L 548.07,239.00 L 547.79,229.25 L 547.50,219.50 L 538.00,219.50 L 528.50,219.50 L 528.21,229.25 L 527.93,239.00 L 517.46,239.00 L 507.00,239.00 L 507.00,249.50 L 507.00,260.00 L 497.00,260.00 L 487.00,260.00 L 487.00,269.33 C487.00,274.47 487.30,278.97 487.67,279.33 C488.03,279.70 492.53,280.00 497.67,280.00 L 507.00,280.00 L 507.00,270.00 M 809.00,219.50 L 809.00,179.00 L 799.00,179.00 L 789.00,179.00 L 789.00,219.50 L 789.00,260.00 L 799.00,260.00 L 809.00,260.00 L 809.00,219.50 M 608.00,189.52 L 608.00,179.04 L 628.25,178.77 L 648.50,178.50 L 648.50,169.00 L 648.50,159.50 L 628.25,159.23 L 608.00,158.96 L 608.00,168.98 L 608.00,179.00 L 588.00,179.00 L 568.00,179.00 L 568.00,189.50 L 568.00,200.00 L 588.00,200.00 L 608.00,200.00 L 608.00,189.52 M 769.00,148.99 L 769.00,138.98 L 728.75,139.24 L 688.50,139.50 L 688.21,149.25 L 687.93,159.00 L 728.46,159.00 L 769.00,159.00 L 769.00,148.99 M 507.00,511.00 L 507.00,501.00 L 517.50,501.00 L 528.00,501.00 L 528.00,511.00 L 528.00,521.00 L 517.50,521.00 L 507.00,521.00 L 507.00,511.00 M 427.00,450.50 L 427.00,440.00 L 437.00,440.00 L 447.00,440.00 L 447.00,450.50 L 447.00,461.00 L 437.00,461.00 L 427.00,461.00 L 427.00,450.50 Z" fill="rgba(0,0,0,1)"/>
</g>
</svg>