<svg xmlns="http://www.w3.org/2000/svg" width="1024" height="1024" viewBox="0 0 1024 1024">
<g>
<path d="M 524.66,25.89 L 528.31,25.94 L 535.25,26.10 L 538.62,26.20 L 544.72,26.45 L 546.17,26.52 L 548.86,26.68 L 552.50,26.94 L 557.27,27.34 L 566.77,28.32 L 571.51,28.85 L 580.93,30.10 L 585.64,30.76 L 594.99,32.27 L 599.65,33.06 L 608.92,34.82 L 613.55,35.74 L 622.73,37.76 L 627.32,38.81 L 636.42,41.08 L 640.95,42.25 L 649.96,44.77 L 654.45,46.07 L 663.36,48.84 L 672.25,51.67 L 689.71,58.07 L 698.39,61.39 L 715.41,68.75 L 723.86,72.54 L 740.40,80.83 L 748.61,85.09 L 764.65,94.30 L 772.60,99.01 L 788.08,109.11 L 795.76,114.27 L 810.66,125.25 L 818.04,130.85 L 832.34,142.67 L 839.41,148.69 L 853.05,161.36 L 856.42,164.58 L 863.03,171.16 L 866.32,174.48 L 872.76,181.27 L 875.95,184.69 L 882.21,191.68 L 885.32,195.19 L 891.40,202.38 L 894.41,205.99 L 900.30,213.37 L 903.23,217.08 L 908.93,224.65 L 911.75,228.46 L 917.26,236.22 L 925.29,248.07 L 926.85,250.44 L 929.73,254.89 L 931.13,257.07 L 933.73,261.23 L 936.28,265.34 L 940.92,273.30 L 942.06,275.31 L 944.34,279.46 L 945.49,281.56 L 947.82,285.99 L 949.01,288.25 L 951.48,293.10 L 955.43,301.00 L 958.65,307.52 L 964.63,320.74 L 967.55,327.38 L 972.92,340.83 L 975.53,347.58 L 980.29,361.23 L 982.59,368.08 L 986.73,381.91 L 988.72,388.85 L 992.24,402.84 L 993.92,409.85 L 996.82,423.98 L 998.19,431.05 L 1000.46,445.29 L 1001.52,452.42 L 1003.16,466.75 L 1003.90,473.92 L 1004.92,488.31 L 1005.35,495.52 L 1005.73,509.96 L 1005.85,517.18 L 1005.60,531.64 L 1005.39,538.87 L 1004.51,553.33 L 1003.98,560.56 L 1002.46,574.99 L 1001.62,582.20 L 999.45,596.59 L 998.29,603.78 L 995.48,618.10 L 990.54,639.48 L 988.80,646.31 L 984.89,659.81 L 982.87,666.54 L 978.40,679.82 L 976.09,686.44 L 971.07,699.48 L 968.49,705.97 L 962.92,718.77 L 960.07,725.14 L 953.97,737.66 L 950.85,743.89 L 944.23,756.14 L 940.85,762.23 L 933.72,774.18 L 930.09,780.12 L 922.45,791.76 L 918.57,797.54 L 910.43,808.86 L 906.31,814.47 L 897.69,825.45 L 893.32,830.89 L 884.23,841.51 L 879.63,846.77 L 870.08,857.02 L 865.24,862.10 L 855.24,871.96 L 850.18,876.85 L 839.73,886.31 L 834.45,890.99 L 823.57,900.04 L 806.76,913.14 L 801.45,917.10 L 790.59,924.69 L 785.13,928.42 L 774.00,935.54 L 768.40,939.04 L 757.01,945.69 L 751.28,948.95 L 739.64,955.12 L 733.79,958.15 L 721.92,963.84 L 715.95,966.62 L 703.87,971.82 L 697.80,974.36 L 685.52,979.07 L 679.35,981.36 L 666.89,985.57 L 660.63,987.61 L 648.00,991.32 L 641.67,993.11 L 628.88,996.31 L 622.48,997.85 L 609.56,1000.54 L 603.09,1001.82 L 590.05,1003.99 L 583.52,1005.00 L 570.39,1006.65 L 563.81,1007.40 L 550.58,1008.52 L 543.96,1009.01 L 530.67,1009.59 L 510.67,1009.86 L 507.90,1009.84 L 501.89,1009.74 L 498.87,1009.68 L 492.90,1009.51 L 489.98,1009.42 L 484.75,1009.21 L 483.52,1009.15 L 481.32,1009.04 L 480.27,1008.98 L 478.50,1008.87 L 472.72,1008.46 L 461.22,1007.34 L 455.48,1006.73 L 444.08,1005.21 L 438.39,1004.40 L 427.09,1002.49 L 421.46,1001.49 L 410.28,999.19 L 404.71,998.00 L 393.65,995.32 L 388.14,993.94 L 377.22,990.89 L 371.78,989.32 L 360.99,985.90 L 355.62,984.14 L 344.98,980.36 L 339.69,978.43 L 329.21,974.29 L 323.99,972.17 L 313.68,967.69 L 308.54,965.40 L 298.40,960.57 L 293.36,958.11 L 283.40,952.94 L 278.44,950.31 L 268.68,944.81 L 263.82,942.01 L 254.25,936.18 L 249.49,933.23 L 240.12,927.08 L 235.47,923.96 L 226.32,917.50 L 221.77,914.22 L 212.85,907.45 L 208.42,904.02 L 199.72,896.95 L 195.40,893.37 L 186.95,886.00 L 182.75,882.27 L 174.55,874.61 L 170.48,870.74 L 162.53,862.79 L 158.58,858.78 L 150.90,850.55 L 147.09,846.40 L 139.67,837.90 L 136.00,833.62 L 128.87,824.85 L 125.34,820.43 L 118.50,811.40 L 115.11,806.86 L 108.57,797.57 L 105.33,792.90 L 99.09,783.36 L 96.01,778.57 L 90.09,768.79 L 87.16,763.87 L 81.56,753.86 L 78.80,748.82 L 73.53,738.58 L 70.94,733.42 L 66.00,722.95 L 58.99,707.00 L 56.19,700.31 L 51.06,686.76 L 48.57,679.96 L 44.06,666.20 L 41.89,659.30 L 38.00,645.35 L 36.14,638.36 L 32.88,624.26 L 31.32,617.19 L 28.69,602.95 L 27.45,595.82 L 25.44,581.48 L 24.52,574.30 L 23.14,559.89 L 22.53,552.68 L 21.77,538.21 L 21.48,530.97 L 21.36,516.48 L 21.38,509.24 L 21.89,494.75 L 22.22,487.51 L 23.37,473.06 L 24.02,465.83 L 25.79,451.43 L 26.76,444.24 L 29.17,429.93 L 30.46,422.78 L 33.51,408.58 L 35.11,401.49 L 38.80,387.42 L 45.04,366.50 L 47.47,359.00 L 52.82,344.25 L 55.58,336.92 L 61.61,322.49 L 64.71,315.32 L 71.41,301.23 L 74.85,294.23 L 82.22,280.47 L 85.99,273.63 L 94.03,260.20 L 98.13,253.54 L 106.84,240.45 L 111.28,233.96 L 120.65,221.22 L 135.45,202.50 L 136.23,201.55 L 137.98,199.50 L 138.89,198.45 L 140.84,196.23 L 142.84,193.97 L 147.35,189.05 L 149.66,186.54 L 154.63,181.30 L 157.14,178.66 L 162.35,173.33 L 164.96,170.67 L 170.18,165.46 L 172.77,162.90 L 177.79,158.05 L 180.25,155.69 L 184.84,151.43 L 185.95,150.41 L 188.05,148.52 L 191.00,145.93 L 196.07,141.57 L 206.40,133.20 L 211.59,129.07 L 222.14,121.15 L 227.45,117.25 L 238.23,109.80 L 243.65,106.13 L 254.65,99.14 L 260.17,95.71 L 271.39,89.19 L 277.02,85.99 L 288.45,79.94 L 294.19,76.97 L 305.82,71.39 L 311.65,68.66 L 323.48,63.56 L 329.42,61.07 L 341.43,56.44 L 347.47,54.19 L 359.67,50.04 L 365.79,48.03 L 378.18,44.37 L 384.39,42.60 L 396.95,39.42 L 403.25,37.89 L 415.97,35.19 L 422.36,33.91 L 435.25,31.71 L 441.71,30.67 L 454.76,28.95 L 474.50,26.94 L 475.63,26.85 L 478.14,26.68 L 479.45,26.60 L 482.28,26.45 L 485.19,26.31 L 491.75,26.10 L 495.13,26.01 L 502.34,25.89 L 506.00,25.85 L 513.50,25.82 L 517.25,25.82 M 646.00,840.00 L 683.00,840.00 L 683.00,860.00 L 646.00,860.00 L 646.00,840.00 L 626.00,840.00 L 626.00,822.00 L 646.00,822.00 M 290.00,822.00 L 309.00,822.00 L 309.00,840.00 L 290.00,840.00 L 290.00,822.00 L 271.00,822.00 L 271.00,803.00 L 290.00,803.00 M 477.00,710.00 L 495.00,710.00 L 495.00,728.00 L 477.00,728.00 L 477.00,710.00 L 458.00,710.00 L 458.00,691.00 L 477.00,691.00 M 251.92,803.00 L 252.50,821.50 L 261.75,821.79 L 271.00,822.08 L 271.00,840.00 L 289.93,840.00 L 290.50,859.50 L 308.50,859.50 L 308.79,849.75 L 309.07,840.00 L 326.93,840.00 L 327.50,859.50 L 346.04,860.08 L 345.50,896.50 L 336.25,896.79 L 327.00,897.08 L 327.00,916.00 L 309.00,916.00 L 309.00,897.00 L 289.92,897.00 L 290.50,915.50 L 299.75,915.79 L 309.00,916.08 L 309.00,934.05 L 327.25,933.77 L 345.50,933.50 L 345.79,924.75 L 346.08,916.00 L 364.00,916.00 L 364.00,897.08 L 373.25,896.79 L 382.50,896.50 L 382.76,859.29 L 383.02,822.08 L 373.76,821.79 L 364.50,821.50 L 363.95,785.00 L 356.56,785.00 L 352.99,784.99 L 351.08,784.95 L 350.34,784.88 L 348.97,784.71 L 348.45,784.54 L 347.53,784.15 L 347.21,783.84 L 346.66,783.15 L 346.48,782.66 L 346.20,781.58 L 346.13,780.87 L 346.02,779.31 L 346.01,778.33 L 346.00,776.22 L 346.00,766.08 L 336.75,765.79 L 327.50,765.50 L 327.21,756.79 L 326.92,748.08 L 336.21,747.79 L 345.50,747.50 L 346.04,710.00 L 364.00,710.00 L 364.00,691.04 L 383.25,690.77 L 402.50,690.50 L 402.79,681.25 L 403.08,672.00 L 458.00,672.00 L 458.00,691.00 L 439.92,691.00 L 440.50,709.50 L 449.21,709.79 L 457.92,710.08 L 458.21,718.79 L 458.50,727.50 L 477.12,728.08 L 476.92,737.79 L 476.72,747.50 L 494.50,747.50 L 494.79,737.75 L 495.07,728.00 L 514.96,728.00 L 515.23,746.75 L 515.50,765.50 L 524.79,765.79 L 534.07,766.08 L 533.79,775.29 L 533.50,784.50 L 514.25,784.77 L 495.00,785.04 L 495.00,803.00 L 485.75,803.00 L 476.50,803.00 L 476.82,812.50 L 477.14,822.00 L 495.00,822.00 L 495.00,803.00 L 515.08,803.00 L 514.79,812.25 L 514.50,821.50 L 504.79,821.79 L 495.08,822.07 L 494.79,830.79 L 494.50,839.50 L 485.75,839.79 L 477.00,840.08 L 477.00,822.00 L 457.96,822.00 L 458.23,840.75 L 458.50,859.50 L 467.79,859.79 L 477.07,860.08 L 476.79,869.29 L 476.50,878.50 L 467.23,878.79 L 457.96,879.08 L 458.23,897.29 L 458.50,915.50 L 467.75,915.79 L 477.00,916.08 L 477.00,934.00 L 495.00,934.00 L 495.00,943.33 L 495.05,947.01 L 495.14,949.22 L 495.20,950.13 L 495.34,951.79 L 495.42,952.35 L 495.59,953.26 L 495.68,953.35 L 495.97,953.44 L 496.38,953.48 L 497.38,953.56 L 498.12,953.59 L 499.76,953.66 L 500.79,953.68 L 502.98,953.73 L 504.26,953.75 L 506.94,953.79 L 508.43,953.80 L 511.51,953.81 L 513.17,953.81 L 520.14,953.80 L 523.93,953.77 L 551.50,953.50 L 551.79,943.79 L 552.07,934.07 L 561.29,933.79 L 570.50,933.50 L 571.04,897.08 L 588.50,896.50 L 588.79,887.75 L 589.08,879.00 L 571.00,879.00 L 571.00,897.00 L 552.08,897.00 L 551.79,906.25 L 551.50,915.50 L 515.50,915.50 L 515.21,906.29 L 514.93,897.08 L 524.21,896.79 L 533.50,896.50 L 534.04,860.08 L 551.50,859.50 L 551.79,849.79 L 552.07,840.07 L 561.29,839.79 L 570.50,839.50 L 571.04,803.08 L 588.50,802.50 L 589.02,728.00 L 571.00,728.00 L 571.00,691.00 L 552.00,691.00 L 552.00,672.00 L 534.00,672.00 L 534.00,654.08 L 524.75,653.79 L 515.50,653.50 L 514.92,635.00 L 495.00,635.00 L 495.00,616.08 L 486.25,615.79 L 477.50,615.50 L 476.95,579.00 L 495.00,579.00 L 495.00,616.00 L 515.00,616.00 L 515.00,635.00 L 534.00,635.00 L 534.00,616.00 L 571.00,616.00 L 571.00,635.00 L 589.00,635.00 L 589.00,672.00 L 608.00,672.00 L 608.00,691.00 L 625.92,691.00 L 626.50,709.50 L 645.50,709.50 L 645.79,700.25 L 646.08,691.00 L 664.00,691.00 L 664.00,728.00 L 646.07,728.00 L 645.79,737.75 L 645.50,747.50 L 635.75,747.79 L 626.00,748.07 L 626.00,822.00 L 608.00,822.00 L 608.00,840.00 L 625.93,840.00 L 626.50,859.50 L 645.93,860.07 L 646.50,878.50 L 682.50,878.50 L 683.07,860.03 L 737.50,859.50 L 738.07,840.07 L 757.50,839.50 L 758.03,785.07 L 776.50,784.50 L 776.79,775.25 L 777.08,766.00 L 758.00,766.00 L 758.00,785.00 L 738.08,785.00 L 737.79,793.75 L 737.50,802.50 L 719.50,803.50 L 719.50,821.50 L 701.50,821.50 L 700.92,803.00 L 683.00,803.00 L 683.00,785.00 L 675.75,784.99 L 671.78,784.97 L 669.66,784.92 L 668.83,784.85 L 667.30,784.68 L 666.73,784.51 L 665.71,784.12 L 665.35,783.81 L 664.73,783.12 L 664.54,782.63 L 664.22,781.55 L 664.14,780.84 L 664.03,779.29 L 664.01,778.31 L 664.00,776.21 L 664.00,766.08 L 673.25,765.79 L 682.50,765.50 L 683.08,748.08 L 700.50,747.50 L 700.79,737.79 L 701.07,728.07 L 710.29,727.79 L 719.50,727.50 L 720.02,654.08 L 701.50,653.50 L 700.92,635.00 L 683.00,635.00 L 683.00,616.08 L 673.75,615.79 L 664.50,615.50 L 663.92,597.00 L 646.00,597.00 L 646.00,579.07 L 636.25,578.79 L 626.50,578.50 L 625.92,560.00 L 571.00,560.00 L 571.00,542.05 L 589.25,541.77 L 607.50,541.50 L 607.79,532.25 L 608.08,523.00 L 683.00,523.00 L 683.00,505.08 L 691.75,504.79 L 700.50,504.50 L 700.79,494.79 L 701.07,485.07 L 710.29,484.79 L 719.50,484.50 L 719.79,475.25 L 720.08,466.00 L 729.04,466.00 L 738.00,466.00 L 738.00,448.07 L 747.75,447.79 L 757.50,447.50 L 757.77,429.29 L 758.04,411.07 L 767.27,410.79 L 776.50,410.50 L 776.77,391.29 L 777.04,372.08 L 785.77,371.79 L 794.50,371.50 L 794.77,353.29 L 795.04,335.07 L 804.77,334.79 L 814.50,334.50 L 815.01,168.07 L 795.50,167.50 L 794.92,149.00 L 777.00,149.00 L 777.00,129.00 L 646.00,129.00 L 646.00,149.00 L 589.08,149.00 L 588.79,158.25 L 588.50,167.50 L 561.25,167.77 L 534.00,168.03 L 534.00,186.00 L 514.54,186.00 L 495.08,186.00 L 494.79,195.25 L 494.50,204.50 L 476.25,204.77 L 458.00,205.05 L 458.00,223.00 L 440.08,223.00 L 439.79,232.25 L 439.50,241.50 L 430.25,241.79 L 421.00,242.08 L 421.00,260.00 L 403.07,260.00 L 402.79,269.75 L 402.50,279.50 L 392.75,279.79 L 383.00,280.07 L 383.00,335.00 L 402.92,335.00 L 403.50,353.50 L 412.25,353.79 L 421.00,354.08 L 421.00,372.00 L 403.00,372.00 L 403.00,392.00 L 383.00,392.00 L 383.00,429.00 L 364.00,429.00 L 364.00,448.00 L 327.00,448.00 L 327.00,466.00 L 318.04,466.00 L 309.08,466.00 L 308.79,475.25 L 308.50,484.50 L 299.25,484.79 L 290.00,485.08 L 290.00,505.00 L 234.00,505.00 L 234.00,523.00 L 215.00,523.00 L 215.00,531.89 L 214.98,534.34 L 214.96,535.75 L 214.93,536.34 L 214.81,538.45 L 214.69,539.15 L 214.41,540.36 L 214.20,540.71 L 213.74,541.27 L 213.42,541.39 L 212.76,541.51 L 211.99,541.59 L 211.47,541.63 L 210.33,541.70 L 209.64,541.73 L 208.17,541.79 L 207.33,541.82 L 203.71,541.92 L 201.61,541.95 L 197.24,542.00 L 178.00,542.00 L 178.00,560.00 L 160.05,560.00 L 159.77,578.25 L 159.50,596.50 L 149.75,596.79 L 140.00,597.07 L 140.00,672.00 L 159.96,672.00 L 160.23,690.75 L 160.50,709.50 L 169.21,709.79 L 177.92,710.08 L 178.21,718.79 L 178.50,727.50 L 187.79,727.79 L 197.07,728.08 L 196.79,737.79 L 196.50,747.50 L 187.25,747.79 L 178.00,748.08 L 178.00,766.00 L 160.00,766.00 L 160.00,748.00 L 140.00,748.00 L 140.00,766.00 L 160.00,766.00 L 160.00,774.89 L 160.02,777.34 L 160.04,778.75 L 160.07,779.34 L 160.19,781.45 L 160.31,782.15 L 160.59,783.36 L 160.80,783.71 L 161.26,784.27 L 161.58,784.39 L 162.28,784.53 L 163.04,784.62 L 163.54,784.65 L 164.64,784.72 L 165.29,784.75 L 166.67,784.81 L 167.45,784.84 L 170.77,784.92 L 172.65,784.95 L 176.51,784.99 L 178.50,784.99 L 182.47,784.97 L 184.35,784.95 L 188.00,784.89 L 189.55,784.84 L 191.05,784.79 L 191.71,784.75 L 192.95,784.69 L 193.46,784.65 L 194.39,784.58 L 194.72,784.53 L 195.29,784.44 L 195.42,784.39 L 196.20,783.71 L 196.57,782.86 L 196.69,782.15 L 196.88,780.53 L 196.93,779.34 L 196.97,778.08 L 196.98,777.34 L 197.00,775.79 L 197.00,766.00 L 215.00,766.00 L 215.00,691.00 L 197.00,691.00 L 197.00,654.00 L 215.00,654.00 L 215.00,635.00 L 234.00,635.00 L 234.00,616.00 L 215.00,616.00 L 215.00,635.00 L 197.00,635.00 L 197.00,654.00 L 188.17,654.00 L 184.68,653.95 L 182.59,653.86 L 181.73,653.80 L 180.15,653.67 L 179.62,653.59 L 178.76,653.42 L 178.67,653.33 L 178.41,652.38 L 178.26,651.13 L 178.20,650.27 L 178.09,648.41 L 178.05,647.32 L 178.00,645.05 L 178.00,635.00 L 197.00,635.00 L 197.00,616.00 L 215.00,616.00 L 215.00,597.03 L 242.75,596.77 L 270.50,596.50 L 270.79,587.75 L 271.08,579.00 L 309.00,579.00 L 309.00,597.00 L 327.00,597.00 L 327.00,597.08 L 327.07,597.07 L 327.08,597.00 L 327.00,597.00 L 327.00,579.00 L 346.00,579.00 L 346.00,542.00 L 364.00,542.00 L 364.00,523.00 L 383.00,523.00 L 383.00,531.89 L 382.99,535.32 L 382.95,537.15 L 382.88,537.87 L 382.69,539.18 L 382.51,539.67 L 382.08,540.55 L 381.75,540.86 L 380.99,541.39 L 380.45,541.55 L 379.27,541.82 L 378.48,541.89 L 376.77,541.98 L 375.69,541.99 L 373.37,542.00 L 364.05,542.00 L 363.77,560.25 L 363.50,578.50 L 346.08,579.08 L 345.50,596.50 L 336.25,596.79 L 327.07,597.07 L 326.79,606.25 L 326.50,615.50 L 317.75,615.79 L 309.00,616.08 L 309.00,635.00 L 290.00,635.00 L 290.00,654.00 L 271.00,654.00 L 271.00,672.00 L 252.00,672.00 L 252.00,691.00 L 271.00,691.00 L 271.00,672.00 L 290.00,672.00 L 290.00,654.00 L 309.00,654.00 L 309.00,672.00 L 290.08,672.00 L 289.79,681.25 L 289.50,690.50 L 280.25,690.79 L 271.00,691.08 L 271.00,803.00 M 626.00,672.00 L 646.00,672.00 L 646.00,691.00 L 626.00,691.00 L 626.00,672.00 L 608.00,672.00 L 608.00,654.00 L 626.00,654.00 M 495.71,485.00 L 514.93,485.00 L 515.50,504.50 L 534.04,505.08 L 533.50,541.50 L 524.29,541.79 L 515.08,542.07 L 514.79,550.79 L 514.50,559.50 L 477.00,560.04 L 477.00,542.00 L 469.75,541.99 L 465.59,542.01 L 463.39,541.99 L 462.54,541.90 L 461.00,541.66 L 460.43,541.39 L 459.43,540.73 L 459.10,540.19 L 458.52,538.94 L 458.36,538.02 L 458.10,535.99 L 458.04,534.61 L 458.00,533.17 L 457.99,532.35 L 457.98,530.63 L 457.98,529.67 L 457.99,527.66 L 457.99,526.54 L 458.00,524.21 L 458.00,505.08 L 467.25,504.79 L 476.50,504.50 L 476.50,485.00 M 571.00,542.00 L 562.17,542.00 L 558.68,541.95 L 556.59,541.86 L 555.73,541.80 L 554.15,541.67 L 553.62,541.59 L 552.76,541.42 L 552.67,541.33 L 552.41,540.38 L 552.26,539.13 L 552.20,538.27 L 552.09,536.41 L 552.05,535.32 L 552.00,533.05 L 552.00,523.00 L 571.00,523.00 M 477.00,523.00 L 477.00,542.00 L 484.42,542.00 L 487.99,541.99 L 489.91,541.95 L 490.66,541.88 L 492.03,541.71 L 492.54,541.54 L 493.46,541.15 L 493.79,540.84 L 494.34,540.14 L 494.52,539.65 L 494.80,538.57 L 494.88,537.85 L 494.98,536.29 L 494.99,535.31 L 495.00,533.19 L 495.00,523.00 M 345.79,494.75 L 345.50,504.50 L 336.25,504.79 L 327.00,505.08 L 327.00,523.00 L 290.00,523.00 L 290.00,505.00 L 327.00,505.00 L 327.00,485.00 L 346.07,485.00 M 440.50,447.50 L 449.25,447.79 L 458.00,448.08 L 458.00,485.00 L 440.07,485.00 L 439.79,494.75 L 439.50,504.50 L 421.25,504.77 L 403.00,505.05 L 403.00,485.00 L 383.00,485.00 L 383.00,448.07 L 392.75,447.79 L 402.50,447.50 L 402.79,438.25 L 403.08,429.00 L 439.92,429.00 M 403.00,466.00 L 403.00,485.00 L 421.00,485.00 L 421.00,466.00 M 477.00,392.00 L 495.00,392.00 L 495.00,448.00 L 552.00,448.00 L 552.00,466.00 L 571.08,466.00 L 570.79,475.25 L 570.50,484.50 L 561.95,484.79 L 558.58,484.84 L 556.55,484.82 L 555.71,484.78 L 554.17,484.69 L 553.65,484.62 L 552.80,484.47 L 552.70,484.37 L 552.43,483.40 L 552.27,482.14 L 552.21,481.28 L 552.09,479.41 L 552.06,478.32 L 552.00,476.05 L 552.00,466.00 L 495.00,466.00 L 495.00,448.08 L 485.94,447.79 L 476.87,447.50 L 476.97,419.79 L 477.06,392.08 L 467.78,391.79 L 458.50,391.50 L 457.93,372.00 L 477.00,372.00 M 664.00,448.00 L 646.00,448.00 L 646.00,466.00 L 626.00,466.00 L 626.00,448.00 L 646.00,448.00 L 646.00,429.00 L 664.00,429.00 M 534.00,392.00 L 552.00,392.00 L 552.00,411.00 L 589.08,411.00 L 588.79,419.75 L 588.50,428.50 L 570.25,428.77 L 552.00,429.05 L 552.00,411.00 L 534.00,411.00 L 534.00,392.00 L 515.00,392.00 L 515.00,354.00 L 534.00,354.00 M 683.00,429.00 L 674.17,429.00 L 670.68,428.95 L 668.59,428.86 L 667.73,428.80 L 666.15,428.67 L 665.62,428.59 L 664.76,428.42 L 664.67,428.33 L 664.41,427.42 L 664.26,426.23 L 664.20,425.41 L 664.09,423.65 L 664.05,422.62 L 664.00,420.48 L 664.00,411.00 L 683.00,411.00 M 737.77,335.25 L 737.50,353.50 L 720.04,354.08 L 719.50,391.50 L 710.25,391.79 L 701.00,392.08 L 701.00,354.00 L 720.00,354.00 L 720.00,317.00 L 738.05,317.00 M 476.50,280.00 L 485.75,280.00 L 495.00,280.00 L 495.00,260.00 L 515.07,260.00 L 514.79,269.75 L 514.50,279.50 L 504.75,279.79 L 495.00,280.07 L 495.00,288.93 L 494.99,292.33 L 494.95,294.15 L 494.87,294.86 L 494.69,296.17 L 494.52,296.66 L 494.11,297.54 L 493.79,297.84 L 493.06,298.37 L 492.55,298.54 L 491.42,298.81 L 490.67,298.88 L 489.05,298.98 L 488.02,298.99 L 485.81,299.00 L 477.14,299.00 L 476.82,289.50 M 758.00,260.39 L 758.00,266.28 L 757.99,269.88 L 757.99,271.53 L 757.98,274.72 L 757.97,276.17 L 757.96,278.98 L 757.95,280.25 L 757.93,282.70 L 757.92,283.80 L 757.89,285.91 L 757.87,286.85 L 757.83,288.66 L 757.81,289.45 L 757.76,290.97 L 757.74,291.63 L 757.61,294.02 L 757.54,294.88 L 757.36,296.40 L 757.26,296.89 L 757.03,297.73 L 756.89,297.97 L 756.59,298.33 L 756.42,298.39 L 755.68,298.59 L 755.07,298.66 L 753.71,298.80 L 752.86,298.85 L 749.08,298.99 L 747.05,298.98 L 745.03,298.96 L 744.08,298.94 L 742.26,298.86 L 741.49,298.81 L 740.07,298.69 L 739.58,298.61 L 738.77,298.44 L 738.67,298.33 L 738.53,297.44 L 738.45,296.12 L 738.41,295.13 L 738.33,292.94 L 738.29,291.56 L 738.23,288.62 L 738.20,286.90 L 738.14,283.29 L 738.11,281.28 L 738.07,277.13 L 738.05,274.88 L 738.02,270.28 L 738.01,267.85 L 738.00,262.90 L 738.00,223.00 L 758.00,223.00 M 608.00,223.00 L 571.08,223.00 L 570.79,232.25 L 570.50,241.50 L 552.25,241.77 L 534.00,242.05 L 534.00,223.00 L 571.00,223.00 L 571.00,205.00 L 608.00,205.00 M 719.79,195.25 L 719.50,204.50 L 683.43,204.76 L 676.17,204.80 L 671.54,204.81 L 669.37,204.81 L 665.13,204.80 L 663.18,204.79 L 659.42,204.77 L 657.75,204.75 L 654.58,204.71 L 653.24,204.68 L 650.75,204.62 L 649.79,204.59 L 648.08,204.52 L 647.55,204.48 L 646.73,204.39 L 646.68,204.35 L 646.42,203.38 L 646.26,202.13 L 646.20,201.27 L 646.09,199.41 L 646.05,198.32 L 646.00,196.05 L 646.00,186.00 L 720.08,186.00 M 476.79,307.75 L 476.50,316.50 L 467.95,316.79 L 464.58,316.84 L 462.55,316.82 L 461.71,316.78 L 460.17,316.69 L 459.65,316.62 L 458.80,316.47 L 458.70,316.37 L 458.43,315.44 L 458.27,314.24 L 458.21,313.43 L 458.09,311.66 L 458.06,310.62 L 458.00,308.48 L 458.00,299.00 L 477.08,299.00 Z" fill="rgba(0,80,245,1)"/>
<path d="M 495.68,953.35 L 495.59,953.26 L 495.42,952.35 L 495.34,951.79 L 495.20,950.13 L 495.14,949.22 L 495.05,947.01 L 495.00,943.33 L 495.00,934.00 L 486.00,934.00 L 477.00,934.00 L 477.00,925.04 L 477.00,916.08 L 467.75,915.79 L 458.50,915.50 L 458.23,897.29 L 457.96,879.08 L 467.23,878.79 L 476.50,878.50 L 476.79,869.29 L 477.07,860.08 L 467.79,859.79 L 458.50,859.50 L 458.23,840.75 L 457.96,822.00 L 467.55,822.00 L 477.14,822.00 L 476.82,812.50 L 476.50,803.00 L 485.75,803.00 L 495.00,803.00 L 495.00,794.02 L 495.00,785.04 L 514.25,784.77 L 533.50,784.50 L 533.79,775.29 L 534.07,766.08 L 524.79,765.79 L 515.50,765.50 L 515.23,746.75 L 514.96,728.00 L 505.01,728.00 L 495.07,728.00 L 494.79,737.75 L 494.50,747.50 L 485.61,747.50 L 476.72,747.50 L 476.92,737.79 L 477.12,728.08 L 467.81,727.79 L 458.50,727.50 L 458.21,718.79 L 457.92,710.08 L 449.21,709.79 L 440.50,709.50 L 440.21,700.25 L 439.92,691.00 L 448.96,691.00 L 458.00,691.00 L 458.00,681.50 L 458.00,672.00 L 430.54,672.00 L 403.08,672.00 L 402.79,681.25 L 402.50,690.50 L 383.25,690.77 L 364.00,691.04 L 364.00,700.52 L 364.00,710.00 L 355.02,710.00 L 346.04,710.00 L 345.77,728.75 L 345.50,747.50 L 336.21,747.79 L 326.92,748.08 L 327.21,756.79 L 327.50,765.50 L 336.75,765.79 L 346.00,766.08 L 346.00,774.93 L 346.00,776.22 L 346.01,778.33 L 346.02,779.31 L 346.13,780.87 L 346.20,781.58 L 346.48,782.66 L 346.66,783.15 L 347.21,783.84 L 347.53,784.15 L 348.45,784.54 L 348.97,784.71 L 350.34,784.88 L 351.08,784.95 L 352.99,784.99 L 356.56,785.00 L 363.95,785.00 L 364.23,803.25 L 364.50,821.50 L 373.76,821.79 L 383.02,822.08 L 382.76,859.29 L 382.50,896.50 L 373.25,896.79 L 364.00,897.08 L 364.00,906.54 L 364.00,916.00 L 355.04,916.00 L 346.08,916.00 L 345.79,924.75 L 345.50,933.50 L 327.25,933.77 L 309.00,934.05 L 309.00,925.06 L 309.00,916.08 L 299.75,915.79 L 290.50,915.50 L 290.21,906.25 L 289.92,897.00 L 299.46,897.00 L 309.00,897.00 L 309.00,906.50 L 309.00,916.00 L 318.00,916.00 L 327.00,916.00 L 327.00,906.54 L 327.00,897.08 L 336.25,896.79 L 345.50,896.50 L 345.77,878.29 L 346.04,860.08 L 336.77,859.79 L 327.50,859.50 L 327.21,849.75 L 326.93,840.00 L 318.00,840.00 L 309.07,840.00 L 308.79,849.75 L 308.50,859.50 L 299.50,859.50 L 290.50,859.50 L 290.21,849.75 L 289.93,840.00 L 280.46,840.00 L 271.00,840.00 L 271.00,831.04 L 271.00,822.08 L 261.75,821.79 L 252.50,821.50 L 252.21,812.25 L 251.92,803.00 L 261.46,803.00 L 271.00,803.00 L 271.00,747.00 L 271.00,691.00 L 261.50,691.00 L 252.00,691.00 L 252.00,681.50 L 252.00,672.00 L 261.50,672.00 L 271.00,672.00 L 271.00,663.00 L 271.00,654.00 L 280.50,654.00 L 290.00,654.00 L 290.00,644.50 L 290.00,635.00 L 299.50,635.00 L 309.00,635.00 L 309.00,625.54 L 309.00,616.08 L 317.75,615.79 L 326.50,615.50 L 326.79,606.25 L 327.08,597.00 L 318.04,597.00 L 309.00,597.00 L 309.00,588.00 L 309.00,579.00 L 290.04,579.00 L 271.08,579.00 L 270.79,587.75 L 270.50,596.50 L 242.75,596.77 L 215.00,597.03 L 215.00,606.52 L 215.00,616.00 L 224.50,616.00 L 234.00,616.00 L 234.00,625.50 L 234.00,635.00 L 224.50,635.00 L 215.00,635.00 L 215.00,644.50 L 215.00,654.00 L 206.00,654.00 L 197.00,654.00 L 197.00,672.50 L 197.00,691.00 L 206.00,691.00 L 215.00,691.00 L 215.00,728.50 L 215.00,766.00 L 206.00,766.00 L 197.00,766.00 L 197.00,774.89 L 197.00,775.79 L 196.98,777.34 L 196.97,778.08 L 196.93,779.34 L 196.88,780.53 L 196.69,782.15 L 196.57,782.86 L 196.20,783.71 L 195.42,784.39 L 195.29,784.44 L 194.72,784.53 L 194.39,784.58 L 193.46,784.65 L 192.95,784.69 L 191.71,784.75 L 191.05,784.79 L 189.55,784.84 L 188.00,784.89 L 184.35,784.95 L 182.47,784.97 L 178.50,784.99 L 176.51,784.99 L 172.65,784.95 L 170.77,784.92 L 167.45,784.84 L 166.67,784.81 L 165.29,784.75 L 164.64,784.72 L 163.54,784.65 L 163.04,784.62 L 162.28,784.53 L 161.58,784.39 L 161.26,784.27 L 160.80,783.71 L 160.59,783.36 L 160.31,782.15 L 160.19,781.45 L 160.07,779.34 L 160.04,778.75 L 160.02,777.34 L 160.00,774.89 L 160.00,766.00 L 150.00,766.00 L 140.00,766.00 L 140.00,757.00 L 140.00,748.00 L 150.00,748.00 L 160.00,748.00 L 160.00,757.00 L 160.00,766.00 L 169.00,766.00 L 178.00,766.00 L 178.00,757.04 L 178.00,748.08 L 187.25,747.79 L 196.50,747.50 L 196.79,737.79 L 197.07,728.08 L 187.79,727.79 L 178.50,727.50 L 178.21,718.79 L 177.92,710.08 L 169.21,709.79 L 160.50,709.50 L 160.23,690.75 L 159.96,672.00 L 149.98,672.00 L 140.00,672.00 L 140.00,634.54 L 140.00,597.07 L 149.75,596.79 L 159.50,596.50 L 159.77,578.25 L 160.05,560.00 L 169.02,560.00 L 178.00,560.00 L 178.00,551.00 L 178.00,542.00 L 194.92,542.00 L 197.24,542.00 L 201.61,541.95 L 203.71,541.92 L 207.33,541.82 L 208.17,541.79 L 209.64,541.73 L 210.33,541.70 L 211.47,541.63 L 211.99,541.59 L 212.76,541.51 L 213.42,541.39 L 213.74,541.27 L 214.20,540.71 L 214.41,540.36 L 214.69,539.15 L 214.81,538.45 L 214.93,536.34 L 214.96,535.75 L 214.98,534.34 L 215.00,531.89 L 215.00,523.00 L 224.50,523.00 L 234.00,523.00 L 234.00,514.00 L 234.00,505.00 L 262.00,505.00 L 290.00,505.00 L 290.00,495.04 L 290.00,485.08 L 299.25,484.79 L 308.50,484.50 L 308.79,475.25 L 309.08,466.00 L 318.04,466.00 L 327.00,466.00 L 327.00,457.00 L 327.00,448.00 L 345.50,448.00 L 364.00,448.00 L 364.00,438.50 L 364.00,429.00 L 373.50,429.00 L 383.00,429.00 L 383.00,410.50 L 383.00,392.00 L 393.00,392.00 L 403.00,392.00 L 403.00,382.00 L 403.00,372.00 L 412.00,372.00 L 421.00,372.00 L 421.00,363.04 L 421.00,354.08 L 412.25,353.79 L 403.50,353.50 L 403.21,344.25 L 402.92,335.00 L 392.96,335.00 L 383.00,335.00 L 383.00,307.54 L 383.00,280.07 L 392.75,279.79 L 402.50,279.50 L 402.79,269.75 L 403.07,260.00 L 412.04,260.00 L 421.00,260.00 L 421.00,251.04 L 421.00,242.08 L 430.25,241.79 L 439.50,241.50 L 439.79,232.25 L 440.08,223.00 L 449.04,223.00 L 458.00,223.00 L 458.00,214.02 L 458.00,205.05 L 476.25,204.77 L 494.50,204.50 L 494.79,195.25 L 495.08,186.00 L 514.54,186.00 L 534.00,186.00 L 534.00,177.02 L 534.00,168.03 L 561.25,167.77 L 588.50,167.50 L 588.79,158.25 L 589.08,149.00 L 617.54,149.00 L 646.00,149.00 L 646.00,139.00 L 646.00,129.00 L 711.50,129.00 L 777.00,129.00 L 777.00,139.00 L 777.00,149.00 L 785.96,149.00 L 794.92,149.00 L 795.21,158.25 L 795.50,167.50 L 805.26,167.79 L 815.01,168.07 L 814.76,251.29 L 814.50,334.50 L 804.77,334.79 L 795.04,335.07 L 794.77,353.29 L 794.50,371.50 L 785.77,371.79 L 777.04,372.08 L 776.77,391.29 L 776.50,410.50 L 767.27,410.79 L 758.04,411.07 L 757.77,429.29 L 757.50,447.50 L 747.75,447.79 L 738.00,448.07 L 738.00,457.04 L 738.00,466.00 L 729.04,466.00 L 720.08,466.00 L 719.79,475.25 L 719.50,484.50 L 710.29,484.79 L 701.07,485.07 L 700.79,494.79 L 700.50,504.50 L 691.75,504.79 L 683.00,505.08 L 683.00,514.04 L 683.00,523.00 L 645.54,523.00 L 608.08,523.00 L 607.79,532.25 L 607.50,541.50 L 589.25,541.77 L 571.00,542.05 L 571.00,551.02 L 571.00,560.00 L 598.46,560.00 L 625.92,560.00 L 626.21,569.25 L 626.50,578.50 L 636.25,578.79 L 646.00,579.07 L 646.00,588.04 L 646.00,597.00 L 654.96,597.00 L 663.92,597.00 L 664.21,606.25 L 664.50,615.50 L 673.75,615.79 L 683.00,616.08 L 683.00,625.54 L 683.00,635.00 L 691.96,635.00 L 700.92,635.00 L 701.21,644.25 L 701.50,653.50 L 710.76,653.79 L 720.02,654.08 L 719.76,690.79 L 719.50,727.50 L 710.29,727.79 L 701.07,728.07 L 700.79,737.79 L 700.50,747.50 L 691.79,747.79 L 683.08,748.08 L 682.79,756.79 L 682.50,765.50 L 673.25,765.79 L 664.00,766.08 L 664.00,774.92 L 664.00,776.21 L 664.01,778.31 L 664.03,779.29 L 664.14,780.84 L 664.22,781.55 L 664.54,782.63 L 664.73,783.12 L 665.35,783.81 L 665.71,784.12 L 666.73,784.51 L 667.30,784.68 L 668.83,784.85 L 669.66,784.92 L 671.78,784.97 L 675.75,784.99 L 683.00,785.00 L 683.00,794.00 L 683.00,803.00 L 691.96,803.00 L 700.92,803.00 L 701.21,812.25 L 701.50,821.50 L 710.50,821.50 L 719.50,821.50 L 719.50,812.50 L 719.50,803.50 L 728.50,803.00 L 737.50,802.50 L 737.79,793.75 L 738.08,785.00 L 748.04,785.00 L 758.00,785.00 L 758.00,775.50 L 758.00,766.00 L 767.54,766.00 L 777.08,766.00 L 776.79,775.25 L 776.50,784.50 L 767.27,784.79 L 758.03,785.07 L 757.77,812.29 L 757.50,839.50 L 747.79,839.79 L 738.07,840.07 L 737.79,849.79 L 737.50,859.50 L 710.29,859.77 L 683.07,860.03 L 682.79,869.27 L 682.50,878.50 L 664.50,878.50 L 646.50,878.50 L 646.21,869.29 L 645.93,860.07 L 636.21,859.79 L 626.50,859.50 L 626.21,849.75 L 625.93,840.00 L 616.96,840.00 L 608.00,840.00 L 608.00,831.00 L 608.00,822.00 L 617.00,822.00 L 626.00,822.00 L 626.00,785.04 L 626.00,748.07 L 635.75,747.79 L 645.50,747.50 L 645.79,737.75 L 646.07,728.00 L 655.04,728.00 L 664.00,728.00 L 664.00,709.50 L 664.00,691.00 L 655.04,691.00 L 646.08,691.00 L 645.79,700.25 L 645.50,709.50 L 636.00,709.50 L 626.50,709.50 L 626.21,700.25 L 625.92,691.00 L 616.96,691.00 L 608.00,691.00 L 608.00,681.50 L 608.00,672.00 L 598.50,672.00 L 589.00,672.00 L 589.00,653.50 L 589.00,635.00 L 580.00,635.00 L 571.00,635.00 L 571.00,625.50 L 571.00,616.00 L 552.50,616.00 L 534.00,616.00 L 534.00,625.50 L 534.00,635.00 L 524.46,635.00 L 514.92,635.00 L 515.21,644.25 L 515.50,653.50 L 524.75,653.79 L 534.00,654.08 L 534.00,663.04 L 534.00,672.00 L 543.00,672.00 L 552.00,672.00 L 552.00,681.50 L 552.00,691.00 L 561.50,691.00 L 571.00,691.00 L 571.00,709.50 L 571.00,728.00 L 580.01,728.00 L 589.02,728.00 L 588.76,765.25 L 588.50,802.50 L 579.77,802.79 L 571.04,803.08 L 570.77,821.29 L 570.50,839.50 L 561.29,839.79 L 552.07,840.07 L 551.79,849.79 L 551.50,859.50 L 542.77,859.79 L 534.04,860.08 L 533.77,878.29 L 533.50,896.50 L 524.21,896.79 L 514.93,897.08 L 515.21,906.29 L 515.50,915.50 L 533.50,915.50 L 551.50,915.50 L 551.79,906.25 L 552.08,897.00 L 561.54,897.00 L 571.00,897.00 L 571.00,888.00 L 571.00,879.00 L 580.04,879.00 L 589.08,879.00 L 588.79,887.75 L 588.50,896.50 L 579.77,896.79 L 571.04,897.08 L 570.77,915.29 L 570.50,933.50 L 561.29,933.79 L 552.07,934.07 L 551.79,943.79 L 551.50,953.50 L 523.93,953.77 L 520.14,953.80 L 513.17,953.81 L 511.51,953.81 L 508.43,953.80 L 506.94,953.79 L 504.26,953.75 L 502.98,953.73 L 500.79,953.68 L 499.76,953.66 L 498.12,953.59 L 497.38,953.56 L 496.38,953.48 L 495.97,953.44 M 683.00,850.00 L 683.00,840.00 L 664.50,840.00 L 646.00,840.00 L 646.00,831.00 L 646.00,822.00 L 636.00,822.00 L 626.00,822.00 L 626.00,831.00 L 626.00,840.00 L 636.00,840.00 L 646.00,840.00 L 646.00,850.00 L 646.00,860.00 L 664.50,860.00 L 683.00,860.00 L 683.00,850.00 M 309.00,831.00 L 309.00,822.00 L 299.50,822.00 L 290.00,822.00 L 290.00,812.50 L 290.00,803.00 L 280.50,803.00 L 271.00,803.00 L 271.00,812.50 L 271.00,822.00 L 280.50,822.00 L 290.00,822.00 L 290.00,831.00 L 290.00,840.00 L 299.50,840.00 L 309.00,840.00 L 309.00,831.00 M 494.79,830.79 L 495.08,822.07 L 504.79,821.79 L 514.50,821.50 L 514.79,812.25 L 515.08,803.00 L 505.04,803.00 L 495.00,803.00 L 495.00,812.50 L 495.00,822.00 L 486.00,822.00 L 477.00,822.00 L 477.00,831.04 L 477.00,840.08 L 485.75,839.79 L 494.50,839.50 L 494.79,830.79 M 495.00,719.00 L 495.00,710.00 L 486.00,710.00 L 477.00,710.00 L 477.00,700.50 L 477.00,691.00 L 467.50,691.00 L 458.00,691.00 L 458.00,700.50 L 458.00,710.00 L 467.50,710.00 L 477.00,710.00 L 477.00,719.00 L 477.00,728.00 L 486.00,728.00 L 495.00,728.00 L 495.00,719.00 M 289.79,681.25 L 290.08,672.00 L 299.54,672.00 L 309.00,672.00 L 309.00,663.00 L 309.00,654.00 L 299.50,654.00 L 290.00,654.00 L 290.00,663.00 L 290.00,672.00 L 280.50,672.00 L 271.00,672.00 L 271.00,681.54 L 271.00,691.08 L 280.25,690.79 L 289.50,690.50 L 289.79,681.25 M 646.00,681.50 L 646.00,672.00 L 636.00,672.00 L 626.00,672.00 L 626.00,663.00 L 626.00,654.00 L 617.00,654.00 L 608.00,654.00 L 608.00,663.00 L 608.00,672.00 L 617.00,672.00 L 626.00,672.00 L 626.00,681.50 L 626.00,691.00 L 636.00,691.00 L 646.00,691.00 L 646.00,681.50 M 197.00,644.50 L 197.00,635.00 L 206.00,635.00 L 215.00,635.00 L 215.00,625.50 L 215.00,616.00 L 206.00,616.00 L 197.00,616.00 L 197.00,625.50 L 197.00,635.00 L 187.50,635.00 L 178.00,635.00 L 178.00,643.83 L 178.00,645.05 L 178.05,647.32 L 178.09,648.41 L 178.20,650.27 L 178.26,651.13 L 178.41,652.38 L 178.67,653.33 L 178.76,653.42 L 179.62,653.59 L 180.15,653.67 L 181.73,653.80 L 182.59,653.86 L 184.68,653.95 L 188.17,654.00 L 197.00,654.00 L 197.00,644.50 M 515.00,625.50 L 515.00,616.00 L 505.00,616.00 L 495.00,616.00 L 495.00,597.50 L 495.00,579.00 L 485.98,579.00 L 476.95,579.00 L 477.23,597.25 L 477.50,615.50 L 486.25,615.79 L 495.00,616.08 L 495.00,625.54 L 495.00,635.00 L 505.00,635.00 L 515.00,635.00 L 515.00,625.50 M 345.79,587.79 L 346.08,579.08 L 354.79,578.79 L 363.50,578.50 L 363.77,560.25 L 364.05,542.00 L 371.94,542.00 L 373.37,542.00 L 375.69,541.99 L 376.77,541.98 L 378.48,541.89 L 379.27,541.82 L 380.45,541.55 L 380.99,541.39 L 381.75,540.86 L 382.08,540.55 L 382.51,539.67 L 382.69,539.18 L 382.88,537.87 L 382.95,537.15 L 382.99,535.32 L 383.00,531.89 L 383.00,523.00 L 373.50,523.00 L 364.00,523.00 L 364.00,532.50 L 364.00,542.00 L 355.00,542.00 L 346.00,542.00 L 346.00,560.50 L 346.00,579.00 L 336.50,579.00 L 327.00,579.00 L 327.00,588.04 L 327.00,597.08 L 336.25,596.79 L 345.50,596.50 L 345.79,587.79 M 514.79,550.79 L 515.08,542.07 L 524.29,541.79 L 533.50,541.50 L 533.77,523.29 L 534.04,505.08 L 524.77,504.79 L 515.50,504.50 L 515.21,494.75 L 514.93,485.00 L 495.71,485.00 L 476.50,485.00 L 476.50,494.75 L 476.50,504.50 L 467.25,504.79 L 458.00,505.08 L 458.00,522.92 L 458.00,524.21 L 457.99,526.54 L 457.99,527.66 L 457.98,529.67 L 457.98,530.63 L 457.99,532.35 L 458.00,533.17 L 458.04,534.61 L 458.10,535.99 L 458.36,538.02 L 458.52,538.94 L 459.10,540.19 L 459.43,540.73 L 460.43,541.39 L 461.00,541.66 L 462.54,541.90 L 463.39,541.99 L 465.59,542.01 L 469.75,541.99 L 477.00,542.00 L 477.00,551.02 L 477.00,560.04 L 495.75,559.77 L 514.50,559.50 L 514.79,550.79 M 571.00,532.50 L 571.00,523.00 L 561.50,523.00 L 552.00,523.00 L 552.00,531.83 L 552.00,533.05 L 552.05,535.32 L 552.09,536.41 L 552.20,538.27 L 552.26,539.13 L 552.41,540.38 L 552.67,541.33 L 552.76,541.42 L 553.62,541.59 L 554.15,541.67 L 555.73,541.80 L 556.59,541.86 L 558.68,541.95 L 562.17,542.00 L 571.00,542.00 L 571.00,532.50 M 327.00,514.04 L 327.00,505.08 L 336.25,504.79 L 345.50,504.50 L 345.79,494.75 L 346.07,485.00 L 336.54,485.00 L 327.00,485.00 L 327.00,495.00 L 327.00,505.00 L 308.50,505.00 L 290.00,505.00 L 290.00,514.00 L 290.00,523.00 L 308.50,523.00 L 327.00,523.00 L 327.00,514.04 M 439.79,494.75 L 440.07,485.00 L 449.04,485.00 L 458.00,485.00 L 458.00,466.54 L 458.00,448.08 L 449.25,447.79 L 440.50,447.50 L 440.21,438.25 L 439.92,429.00 L 421.50,429.00 L 403.08,429.00 L 402.79,438.25 L 402.50,447.50 L 392.75,447.79 L 383.00,448.07 L 383.00,466.54 L 383.00,485.00 L 393.00,485.00 L 403.00,485.00 L 403.00,495.02 L 403.00,505.05 L 421.25,504.77 L 439.50,504.50 L 439.79,494.75 M 570.79,475.25 L 571.08,466.00 L 561.54,466.00 L 552.00,466.00 L 552.00,457.00 L 552.00,448.00 L 523.50,448.00 L 495.00,448.00 L 495.00,420.00 L 495.00,392.00 L 486.00,392.00 L 477.00,392.00 L 477.00,382.00 L 477.00,372.00 L 467.46,372.00 L 457.93,372.00 L 458.21,381.75 L 458.50,391.50 L 467.78,391.79 L 477.06,392.08 L 476.97,419.79 L 476.87,447.50 L 485.94,447.79 L 495.00,448.08 L 495.00,457.04 L 495.00,466.00 L 523.50,466.00 L 552.00,466.00 L 552.00,474.83 L 552.00,476.05 L 552.06,478.32 L 552.09,479.41 L 552.21,481.28 L 552.27,482.14 L 552.43,483.40 L 552.70,484.37 L 552.80,484.47 L 553.65,484.62 L 554.17,484.69 L 555.71,484.78 L 556.55,484.82 L 558.58,484.84 L 561.95,484.79 L 570.50,484.50 L 570.79,475.25 M 646.00,457.00 L 646.00,448.00 L 655.00,448.00 L 664.00,448.00 L 664.00,438.50 L 664.00,429.00 L 655.00,429.00 L 646.00,429.00 L 646.00,438.50 L 646.00,448.00 L 636.00,448.00 L 626.00,448.00 L 626.00,457.00 L 626.00,466.00 L 636.00,466.00 L 646.00,466.00 L 646.00,457.00 M 588.79,419.75 L 589.08,411.00 L 570.54,411.00 L 552.00,411.00 L 552.00,401.50 L 552.00,392.00 L 543.00,392.00 L 534.00,392.00 L 534.00,373.00 L 534.00,354.00 L 524.50,354.00 L 515.00,354.00 L 515.00,373.00 L 515.00,392.00 L 524.50,392.00 L 534.00,392.00 L 534.00,401.50 L 534.00,411.00 L 543.00,411.00 L 552.00,411.00 L 552.00,420.02 L 552.00,429.05 L 570.25,428.77 L 588.50,428.50 L 588.79,419.75 M 683.00,420.00 L 683.00,411.00 L 673.50,411.00 L 664.00,411.00 L 664.00,419.33 L 664.00,420.48 L 664.05,422.62 L 664.09,423.65 L 664.20,425.41 L 664.26,426.23 L 664.41,427.42 L 664.67,428.33 L 664.76,428.42 L 665.62,428.59 L 666.15,428.67 L 667.73,428.80 L 668.59,428.86 L 670.68,428.95 L 674.17,429.00 L 683.00,429.00 L 683.00,420.00 M 719.77,372.79 L 720.04,354.08 L 728.77,353.79 L 737.50,353.50 L 737.77,335.25 L 738.05,317.00 L 729.02,317.00 L 720.00,317.00 L 720.00,335.50 L 720.00,354.00 L 710.50,354.00 L 701.00,354.00 L 701.00,373.04 L 701.00,392.08 L 710.25,391.79 L 719.50,391.50 L 719.77,372.79 M 476.79,307.75 L 477.08,299.00 L 484.46,299.00 L 485.81,299.00 L 488.02,298.99 L 489.05,298.98 L 490.67,298.88 L 491.42,298.81 L 492.55,298.54 L 493.06,298.37 L 493.79,297.84 L 494.11,297.54 L 494.52,296.66 L 494.69,296.17 L 494.87,294.86 L 494.95,294.15 L 494.99,292.33 L 495.00,288.93 L 495.00,280.07 L 504.75,279.79 L 514.50,279.50 L 514.79,269.75 L 515.07,260.00 L 505.04,260.00 L 495.00,260.00 L 495.00,270.00 L 495.00,280.00 L 485.75,280.00 L 476.50,280.00 L 476.82,289.50 L 477.14,299.00 L 467.57,299.00 L 458.00,299.00 L 458.00,307.33 L 458.00,308.48 L 458.06,310.62 L 458.09,311.66 L 458.21,313.43 L 458.27,314.24 L 458.43,315.44 L 458.70,316.37 L 458.80,316.47 L 459.65,316.62 L 460.17,316.69 L 461.71,316.78 L 462.55,316.82 L 464.58,316.84 L 467.95,316.79 L 476.50,316.50 L 476.79,307.75 M 756.42,298.39 L 756.59,298.33 L 756.89,297.97 L 757.03,297.73 L 757.26,296.89 L 757.36,296.40 L 757.54,294.88 L 757.61,294.02 L 757.74,291.63 L 757.76,290.97 L 757.81,289.45 L 757.83,288.66 L 757.87,286.85 L 757.89,285.91 L 757.92,283.80 L 757.93,282.70 L 757.95,280.25 L 757.96,278.98 L 757.97,276.17 L 757.98,274.72 L 757.99,271.53 L 757.99,269.88 L 758.00,266.28 L 758.00,260.39 L 758.00,223.00 L 748.00,223.00 L 738.00,223.00 L 738.00,260.33 L 738.00,262.90 L 738.01,267.85 L 738.02,270.28 L 738.05,274.88 L 738.07,277.13 L 738.11,281.28 L 738.14,283.29 L 738.20,286.90 L 738.23,288.62 L 738.29,291.56 L 738.33,292.94 L 738.41,295.13 L 738.45,296.12 L 738.53,297.44 L 738.67,298.33 L 738.77,298.44 L 739.58,298.61 L 740.07,298.69 L 741.49,298.81 L 742.26,298.86 L 744.08,298.94 L 745.03,298.96 L 747.05,298.98 L 749.08,298.99 L 752.86,298.85 L 753.71,298.80 L 755.07,298.66 L 755.68,298.59 M 570.79,232.25 L 571.08,223.00 L 589.54,223.00 L 608.00,223.00 L 608.00,214.00 L 608.00,205.00 L 589.50,205.00 L 571.00,205.00 L 571.00,214.00 L 571.00,223.00 L 552.50,223.00 L 534.00,223.00 L 534.00,232.52 L 534.00,242.05 L 552.25,241.77 L 570.50,241.50 L 570.79,232.25 M 719.79,195.25 L 720.08,186.00 L 683.04,186.00 L 646.00,186.00 L 646.00,194.83 L 646.00,196.05 L 646.05,198.32 L 646.09,199.41 L 646.20,201.27 L 646.26,202.13 L 646.42,203.38 L 646.68,204.35 L 646.73,204.39 L 647.55,204.48 L 648.08,204.52 L 649.79,204.59 L 650.75,204.62 L 653.24,204.68 L 654.58,204.71 L 657.75,204.75 L 659.42,204.77 L 663.18,204.79 L 665.13,204.80 L 669.37,204.81 L 671.54,204.81 L 676.17,204.80 L 683.43,204.76 L 719.50,204.50 L 719.79,195.25 M 477.00,532.50 L 477.00,523.00 L 486.00,523.00 L 495.00,523.00 L 495.00,531.89 L 495.00,533.19 L 494.99,535.31 L 494.98,536.29 L 494.88,537.85 L 494.80,538.57 L 494.52,539.65 L 494.34,540.14 L 493.79,540.84 L 493.46,541.15 L 492.54,541.54 L 492.03,541.71 L 490.66,541.88 L 489.91,541.95 L 487.99,541.99 L 484.42,542.00 L 477.00,542.00 L 477.00,532.50 M 403.00,475.50 L 403.00,466.00 L 412.00,466.00 L 421.00,466.00 L 421.00,475.50 L 421.00,485.00 L 412.00,485.00 L 403.00,485.00 L 403.00,475.50 Z" fill="rgba(254,254,255,1)"/>
</g>
</svg>