<svg xmlns="http://www.w3.org/2000/svg" width="955" height="347" viewBox="0 0 955 347">
<g>
<path d="M 0.00,173.50 L 0.00,0.00 L 477.50,0.00 L 955.00,0.00 L 955.00,173.50 L 955.00,347.00 L 477.50,347.00 L 0.00,347.00 L 0.00,173.50 M 442.00,318.00 L 442.00,312.00 L 454.00,312.00 L 466.00,312.00 L 466.00,306.00 L 466.00,300.00 L 472.00,300.00 L 478.00,300.00 L 478.00,287.50 L 478.00,275.00 L 460.00,275.00 L 442.00,275.00 L 442.00,281.50 L 442.00,288.00 L 430.00,288.00 L 418.00,288.00 L 418.00,281.50 L 418.00,275.00 L 412.00,275.00 L 406.00,275.00 L 406.00,269.00 L 406.00,263.00 L 418.00,263.00 L 430.00,263.00 L 430.00,257.00 L 430.00,251.00 L 436.00,251.00 L 442.00,251.00 L 442.00,239.00 L 442.00,227.00 L 448.00,227.00 L 454.00,227.00 L 454.00,161.00 L 454.00,95.00 L 448.00,95.00 L 442.00,95.00 L 442.00,83.00 L 442.00,71.00 L 436.00,71.00 L 430.00,71.00 L 430.00,64.50 L 430.00,58.00 L 418.00,58.00 L 406.00,58.00 L 406.00,52.00 L 406.00,46.00 L 351.50,46.00 L 297.00,46.00 L 297.00,52.00 L 297.00,58.00 L 285.00,58.00 L 273.00,58.00 L 273.00,64.50 L 273.00,71.00 L 267.00,71.00 L 261.00,71.00 L 261.00,83.00 L 261.00,95.00 L 255.00,95.00 L 249.00,95.00 L 249.00,161.00 L 249.00,227.00 L 255.00,227.00 L 261.00,227.00 L 261.00,239.00 L 261.00,251.00 L 267.00,251.00 L 273.00,251.00 L 273.00,257.00 L 273.00,263.00 L 279.00,263.00 L 285.00,263.00 L 285.00,275.50 L 285.00,288.00 L 279.00,288.00 L 273.00,288.00 L 273.00,294.00 L 273.00,300.00 L 267.00,300.00 L 261.00,300.00 L 261.00,306.00 L 261.00,312.00 L 285.00,312.00 L 309.00,312.00 L 309.00,306.00 L 309.00,300.00 L 321.00,300.00 L 333.00,300.00 L 333.00,294.00 L 333.00,288.00 L 345.50,288.00 L 358.00,288.00 L 358.00,294.00 L 358.00,300.00 L 364.00,300.00 L 370.00,300.00 L 370.00,306.00 L 370.00,312.00 L 382.00,312.00 L 394.00,312.00 L 394.00,318.00 L 394.00,324.00 L 418.00,324.00 L 442.00,324.00 L 442.00,318.00 M 141.00,281.50 L 141.00,275.00 L 147.00,275.00 L 153.00,275.00 L 153.00,269.00 L 153.00,263.00 L 177.00,263.00 L 201.00,263.00 L 201.00,257.00 L 201.00,251.00 L 207.00,251.00 L 213.00,251.00 L 213.00,245.00 L 213.00,239.00 L 219.00,239.00 L 225.00,239.00 L 225.00,197.00 L 225.00,155.00 L 219.00,155.00 L 213.00,155.00 L 213.00,149.00 L 213.00,143.00 L 207.00,143.00 L 201.00,143.00 L 201.00,137.00 L 201.00,131.00 L 153.00,131.00 L 105.00,131.00 L 105.00,119.00 L 105.00,107.00 L 159.00,107.00 L 213.00,107.00 L 213.00,101.00 L 213.00,95.00 L 219.00,95.00 L 225.00,95.00 L 225.00,76.50 L 225.00,58.00 L 219.00,58.00 L 213.00,58.00 L 213.00,52.00 L 213.00,46.00 L 183.00,46.00 L 153.00,46.00 L 153.00,40.00 L 153.00,34.00 L 147.00,34.00 L 141.00,34.00 L 141.00,28.00 L 141.00,22.00 L 129.00,22.00 L 117.00,22.00 L 117.00,28.00 L 117.00,34.00 L 111.00,34.00 L 105.00,34.00 L 105.00,40.00 L 105.00,46.00 L 80.50,46.00 L 56.00,46.00 L 56.00,52.00 L 56.00,58.00 L 50.00,58.00 L 44.00,58.00 L 44.00,64.50 L 44.00,71.00 L 38.00,71.00 L 32.00,71.00 L 32.00,113.00 L 32.00,155.00 L 38.00,155.00 L 44.00,155.00 L 44.00,161.00 L 44.00,167.00 L 50.00,167.00 L 56.00,167.00 L 56.00,173.00 L 56.00,179.00 L 104.50,179.00 L 153.00,179.00 L 153.00,191.00 L 153.00,203.00 L 98.50,203.00 L 44.00,203.00 L 44.00,209.00 L 44.00,215.00 L 38.00,215.00 L 32.00,215.00 L 32.00,233.00 L 32.00,251.00 L 38.00,251.00 L 44.00,251.00 L 44.00,257.00 L 44.00,263.00 L 74.50,263.00 L 105.00,263.00 L 105.00,269.00 L 105.00,275.00 L 111.00,275.00 L 117.00,275.00 L 117.00,281.50 L 117.00,288.00 L 129.00,288.00 L 141.00,288.00 L 141.00,281.50 M 611.00,257.00 L 611.00,251.00 L 623.00,251.00 L 635.00,251.00 L 635.00,245.00 L 635.00,239.00 L 641.00,239.00 L 647.00,239.00 L 647.00,148.50 L 647.00,58.00 L 641.00,58.00 L 635.00,58.00 L 635.00,52.00 L 635.00,46.00 L 617.00,46.00 L 599.00,46.00 L 599.00,118.50 L 599.00,191.00 L 592.50,191.00 L 586.00,191.00 L 586.00,197.00 L 586.00,203.00 L 562.00,203.00 L 538.00,203.00 L 538.00,197.00 L 538.00,191.00 L 532.00,191.00 L 526.00,191.00 L 526.00,118.50 L 526.00,46.00 L 508.00,46.00 L 490.00,46.00 L 490.00,52.00 L 490.00,58.00 L 484.00,58.00 L 478.00,58.00 L 478.00,148.50 L 478.00,239.00 L 484.00,239.00 L 490.00,239.00 L 490.00,245.00 L 490.00,251.00 L 502.00,251.00 L 514.00,251.00 L 514.00,257.00 L 514.00,263.00 L 562.50,263.00 L 611.00,263.00 L 611.00,257.00 M 719.00,257.00 L 719.00,251.00 L 725.00,251.00 L 731.00,251.00 L 731.00,154.50 L 731.00,58.00 L 725.00,58.00 L 719.00,58.00 L 719.00,52.00 L 719.00,46.00 L 701.00,46.00 L 683.00,46.00 L 683.00,52.00 L 683.00,58.00 L 677.00,58.00 L 671.00,58.00 L 671.00,154.50 L 671.00,251.00 L 677.00,251.00 L 683.00,251.00 L 683.00,257.00 L 683.00,263.00 L 701.00,263.00 L 719.00,263.00 L 719.00,257.00 M 876.00,257.00 L 876.00,251.00 L 888.00,251.00 L 900.00,251.00 L 900.00,245.00 L 900.00,239.00 L 906.00,239.00 L 912.00,239.00 L 912.00,227.00 L 912.00,215.00 L 918.00,215.00 L 924.00,215.00 L 924.00,155.00 L 924.00,95.00 L 918.00,95.00 L 912.00,95.00 L 912.00,83.00 L 912.00,71.00 L 906.00,71.00 L 900.00,71.00 L 900.00,64.50 L 900.00,58.00 L 888.00,58.00 L 876.00,58.00 L 876.00,52.00 L 876.00,46.00 L 821.50,46.00 L 767.00,46.00 L 767.00,52.00 L 767.00,58.00 L 761.00,58.00 L 755.00,58.00 L 755.00,154.50 L 755.00,251.00 L 761.00,251.00 L 767.00,251.00 L 767.00,257.00 L 767.00,263.00 L 821.50,263.00 L 876.00,263.00 L 876.00,257.00 M 321.00,197.00 L 321.00,191.00 L 315.00,191.00 L 309.00,191.00 L 309.00,155.00 L 309.00,119.00 L 315.00,119.00 L 321.00,119.00 L 321.00,113.00 L 321.00,107.00 L 351.50,107.00 L 382.00,107.00 L 382.00,113.00 L 382.00,119.00 L 388.00,119.00 L 394.00,119.00 L 394.00,155.00 L 394.00,191.00 L 388.00,191.00 L 382.00,191.00 L 382.00,197.00 L 382.00,203.00 L 351.50,203.00 L 321.00,203.00 L 321.00,197.00 M 117.00,269.00 L 117.00,263.00 L 111.00,263.00 L 105.00,263.00 L 105.00,257.00 L 105.00,251.00 L 74.50,251.00 L 44.00,251.00 L 44.00,233.00 L 44.00,215.00 L 98.50,215.00 L 153.00,215.00 L 153.00,209.00 L 153.00,203.00 L 159.00,203.00 L 165.00,203.00 L 165.00,191.00 L 165.00,179.00 L 159.00,179.00 L 153.00,179.00 L 153.00,173.00 L 153.00,167.00 L 104.50,167.00 L 56.00,167.00 L 56.00,161.00 L 56.00,155.00 L 50.00,155.00 L 44.00,155.00 L 44.00,113.00 L 44.00,71.00 L 50.00,71.00 L 56.00,71.00 L 56.00,64.50 L 56.00,58.00 L 80.50,58.00 L 105.00,58.00 L 105.00,52.00 L 105.00,46.00 L 111.00,46.00 L 117.00,46.00 L 117.00,40.00 L 117.00,34.00 L 129.00,34.00 L 141.00,34.00 L 141.00,40.00 L 141.00,46.00 L 147.00,46.00 L 153.00,46.00 L 153.00,52.00 L 153.00,58.00 L 183.00,58.00 L 213.00,58.00 L 213.00,76.50 L 213.00,95.00 L 159.00,95.00 L 105.00,95.00 L 105.00,101.00 L 105.00,107.00 L 98.50,107.00 L 92.00,107.00 L 92.00,119.00 L 92.00,131.00 L 98.50,131.00 L 105.00,131.00 L 105.00,137.00 L 105.00,143.00 L 153.00,143.00 L 201.00,143.00 L 201.00,149.00 L 201.00,155.00 L 207.00,155.00 L 213.00,155.00 L 213.00,197.00 L 213.00,239.00 L 207.00,239.00 L 201.00,239.00 L 201.00,245.00 L 201.00,251.00 L 177.00,251.00 L 153.00,251.00 L 153.00,257.00 L 153.00,263.00 L 147.00,263.00 L 141.00,263.00 L 141.00,269.00 L 141.00,275.00 L 129.00,275.00 L 117.00,275.00 L 117.00,269.00 M 815.00,197.00 L 815.00,191.00 L 809.00,191.00 L 803.00,191.00 L 803.00,149.00 L 803.00,107.00 L 809.00,107.00 L 815.00,107.00 L 815.00,101.00 L 815.00,95.00 L 839.50,95.00 L 864.00,95.00 L 864.00,101.00 L 864.00,107.00 L 870.00,107.00 L 876.00,107.00 L 876.00,149.00 L 876.00,191.00 L 870.00,191.00 L 864.00,191.00 L 864.00,197.00 L 864.00,203.00 L 839.50,203.00 L 815.00,203.00 L 815.00,197.00 Z"></path>
</g>
</svg>